/* XPM */
static char *caa53cb61b824eddb8245eed68f49a2d39jFR5JV1gr1bUop[] = {
/* columns rows colors chars-per-pixel */
"64 64 69 1 ",
"  c black",
". c #1E1D33",
"X c #3B2C2C",
"o c #4B3936",
"O c #56433E",
"+ c #695135",
"@ c #74623E",
"# c #292545",
"$ c #372E5B",
"% c #4A376C",
"& c #4A3B72",
"* c #635342",
"= c #6A5C48",
"- c #705F49",
"; c #625A53",
": c #635D5A",
"> c #7D6A43",
", c #71624A",
"< c #786749",
"1 c #6B6051",
"2 c #66615D",
"3 c #6B655C",
"4 c #756A55",
"5 c #6E6965",
"6 c #706760",
"7 c #726A66",
"8 c #796E6B",
"9 c #7C716F",
"0 c #7A6E70",
"q c #7B7171",
"w c #826E46",
"e c #847147",
"r c #8D7147",
"t c #867349",
"y c #8B754B",
"u c #8F7A4F",
"i c #957646",
"p c #997744",
"a c #967847",
"s c #997845",
"d c #937749",
"f c #91794C",
"g c #987A48",
"h c #837353",
"j c #8E7A50",
"k c #907B50",
"l c #8D7961",
"z c #8E7E6E",
"x c #937F64",
"c c #867970",
"v c #84797B",
"b c #94816D",
"n c #8E807E",
"m c #948273",
"M c #97857C",
"N c #9A877A",
"B c #6E5195",
"V c #75569C",
"C c #9267B2",
"Z c #9663B9",
"A c #B267C9",
"S c #AF72C9",
"D c #8F8083",
"F c #938384",
"G c #95888C",
"H c #9B8B8D",
"J c #9C8D91",
"K c #CC95D6",
"L c #E6B0E6",
/* pixels */
"uuuueabaybbeauubbeauuuuuuuuuuuuuuuaeaeaybauuuuuuuuuuuuuuuuuuuuuu",
"uuuueabaybbeauubbeauuuuuuuuuuuuuuuaeaeaybauuuuuuuuuuuuuuuuuuuuuu",
"ukuybfeaeaaaaaaaayauuuuuuuuuuuuuuar@abebuuuuuuuuuuuuuuuuuutaaguu",
"uuetayuuaaaaaappaaafuauuuuuuuuuuueebbtafuuuuuuuuuauuuuuuubaaaaaa",
"uywybuuuaayaaaaeaaasbeuuuuuuuuuuubbHNbffuuuuuuuuuuuuuuuuuuaaaaaa",
"uuueyuuuaaapaaaaesaauutauuuuuuuuhnJGNMbyuuuuuuuuuuuuuuuuuuuauaau",
"ujbmMbjaaatptataaaaauyabuuuuuuue5nHJHMtbuuuuuuuuuuuuuuuuuuuaaaay",
"tcJJJJbdbebetaaaaaauuyutuuuuuae@3cvnzcyauuuuuuuuuuuukuueuukayaau",
"<5DHHFldapaaaaaaaaauuuaeeauubeee;22224uuuuuuuuuuuuuueeeuututtauu",
"@15894tataaaappaaauueuuuautub@ae@@==@beuuuuuuuuuuubteuuuueeuayab",
"y=:::@byaayabeatbuuueuuuuuua>tabbybtaeeauuuuuuuuuateuuuuuutauaea",
"be@@ebffbaaaaaabuuute...uubeafyappppgbtauuuuuuuuuutuuuuuuueuayaa",
"uuufaeffeatataaeuuueu.LK..teafppppepsgtekuuuuuuuuuuuuuuuuutuuuau",
"uuuuufffyfyaaabeuuet.LLKKK..tppapppiipp@uuuuuuuuuuuuuuuuuaebuuab",
"uuufufffafafayyauuee.LKKSKKK..paaaprippbtauuuuuuuuuuuuuuuttuuaae",
"uuuuyuabauaftaueuue.BKKSSSSSSK...ppaiiptyeauuuuuuuuuuuuukayuuuay",
"uuuufaeayaffabatyut.BBKSLSSSSSSCS..iiippbeuuuuuuuuuuuuuuuuyuuuau",
"uuuuuabeauuuuuuytb.BBBSSSSSSSCCCCCS..sapuuuuuu......uuuuuujjjjuu",
"uuuuuuaauuuuuuuaea.ZBBSSSSCCCCCCCCCCS.aagt....KKSSSC.uuuuuhjjjuu",
"uuuuuuuuuuuuuuuey.BBBBBSSCCCCACCKCCCC.aaa.SSKKSSSCCB.ukakennzjuu",
"uuuuuuuuuuuuuuueu.B&&&BSSCCCKCCKKKCCCC.t.&&SSCCCCCCB.uuku4nGJNbu",
"uuuuuuuuuuuuukteu.&V&&&&SSCCCCCCKCCACC..&V&CCCKCCCBB.kuk45nGGHHx",
"uuuuuuuuuuukuuke.$&&&&&&SSSCCCCCCCCCCC.&&&&CCACCCCBB.uuk<5nGHHJb",
"ue>eabuuuuuuuuk>.$&&&&&&SBBSCCCZACZCCCB&&&&&CCCACBBBB.uk@2cnHGHx",
"uyatettyuuuuuuk.$$&&Z&&&BBBBBCCCCZKCCCB&Z&&&CKCCCBBBB.uu@;5vnGnj",
"uuuuuetatuuuuuu.$&&&&&&BBBBBBBCCCCCCCBB&&&&&CCCCBBBAB.ua>@=3324b",
"uuuuuubauuuuuu.$$&&V&&&BBBBBBABCCCCCCBB&&&&BCCCCBBBBB.uubt@@,>ay",
"uuuuuubauuuuau.$$Z&&&&&BBBBBBBBBCCCCBBB&V&&B$$$CBBZBB.uubaaabfbe",
"uuuufaeauuuutb.$$&&&&&BBZBBBBBB&BBBBBBBB&&B$$$$$CBBBZ.uuetbeauta",
"uuuuuueetuuuuuu.$&&&&&BBBBBBBBB&BBBBBZBB&$$$$$$$$BBBB.uuuuuutuuu",
"buuuuueeeuuuuuu.$$V&&&BBABZBBZBB&BBBBBBB&$$$$%$$$$BB.buuuuuuauuu",
"auuuuuaeatauuuu.$$&&&&BAAABBBBBB&&BBBBVC&$$$$$$V$$##.uuuuuuuuuuu",
"yuuuuuuubauuuuuu.$B&&VBBABBBBBBB&&&&CCCC&&$$$$$$$##.uuuuuuuuuuuu",
"ukuuuuuuuuuuuuuu.$BB&&BBBBBABBB$&&&&&&CC&&$$%$$$##.uuuuuuuuuuuuu",
"uuuuuuuuuuuuuuu..$$B&&$BBBBBBBC&&&&&&&&&&V&$$$$##.uuuuuuuuuuukuu",
"uuuuuuuuuuuuu..BB&$$B&&$BCCBBC$&&&Z&&&&&&&&&$###.auuuuuuuukuuuuu",
"uuuuuuuuuuuu.CCB&&&$$$&$$$CCCC$&&&&&&&&&&&CSSSK.ooabuuuuuuuuukuu",
"uuuuuuuuuuuuu.##&&&&$$$$$$$$C$$&V&&&&&&&&CCCCSSS.ootauuuuuuuuuuk",
"ukuuuuuuuuuuu.######$$$$$$$%$$&&&&&V&&Z&$CSCACBB.ooouuuuuuuuuuuu",
"uuuuuuuuuuuuuu.######$$V$$$$$$&&&&&&&&&&$CCCBBBB.ooouuuuuuuuuuuu",
"uukuuuuuuuuuuuu.##%###$$$$$$$$&&&&V&&&&&$$BBBABB.Xoouuuuuuuuuuuu",
"uuuukuuuuuuuuuu.######$$$$$$$$$&&&&&&&&$$$BBBBBB.Xouuuutyeyeuueu",
"kuuuuuuuuueuuuoo....###$$%$$$$$&&&&&&&$$$$$BBBBB.Xouuuuuuukuu>eu",
"uuuuuuukuuteuoooXXXX.##$$$$$V$$&Z&&&V&$$$$$BBABB.ouuuuuuuuuuuuuu",
"uuuuyuuuuuuuoooooooXX.##$$$$$$$$B&Z&&&$$$$$&&BB.Xouuuuabuuuuuuuu",
"uuuuuuy>euyeooOOOooXX.##$V$$$$$$B&&&&&$%$$$&&#B.ouukuuuuuuuuuuuu",
"uuuuuuuuuu@eoOOOOOooXX.###$$$%$$VBV&&&$$$%&$##.Xouuuuuuuuuuuuuuu",
"uuuuuuuuuueooOOOOOOooX.####$$$$$$BB&&&$$$$$##.Xoouuuuuuuuuuuuuuu",
"uuuuuuuuuuooooOOOOooooX..####$$$$VB&&Z&$$###.Xooouuuuuuuuuuuuuuu",
"uuuuuuuuuuuoooooooooOooXX..###$$$VV&&&&####.Xoooyuuuuuuuuuuuuuuu",
"uuuuuuauuuuuuooooooOOOooOXX..##$$$VV&$$....Xoooueuuuuuuuuuuuuuuu",
"uuuububbaauutbuoooOOOOoOOOoXX..##$V&$$.XXXXoookuauutuukuuuuuuuuu",
"uuuktmNGbuaaagagoooOOoooOooooXX..##$..XoOooootkubaeeuuuuuuuuuuuu",
"ukua@7MJJNuaayuapooooooooooOOooXX...XXoOOOoueyuueauuuuuuuukuuuuu",
"uuuy=5qGHNbtaauaebaoooooooOOOOoooXXXooooOouuyuuuuuuuuuuuuuuuuuuu",
"uuuu+;37MGbauauaaaaaaoooooOOOOOooooooooouuuekuuuuuuuuuutuuuuuuuu",
"uukke+*;:3yauatuyayayapeaooOOOoooooooouuuuutuuuuuuuuuubauuuuutfu",
"uuuubu@@@tffyayaaaaaaaabaaaaaaauuetkuuuuuuyuuuuuuyjjbHHGbauuueea",
"uuuuafuaabffauebepayayaaaaataaukttuuukuuuuuyuuuuutbenJJGbtuuet@a",
"uuuuatuutaufuaaaabaaaaayaeaaauuytbauuuuuuuuuuuuuuuy@5nnceuut>aba",
"uuuuuuuafuffayaayayaayaaaaaauuttuuyuukuuuuuuuuuuuub@253,aauuebat",
"ufyuuuuuuauayeaafauyaaaaaaafuyuuukuuuuukuuuuuuuuuube@;1euubfeeau",
"ue@fuuuuuuuyabyaaufauyyayfuyuuuuuuuuuuuuuuuuuuuuuuaayetbuatkteuy",
"pwaauuutuuauaaauuuuuuuuuuuuuuuuuuuuuuuuuyuuuuuuuuuyuuguuuuuutuuu"
};
