/* XPM */
static char *_b8f4c88ae2e4aa8af8f02cad6d5b01dR3A3VbxYee3Elgp4[] = {
/* columns rows colors chars-per-pixel */
"64 64 60 1 ",
"  c black",
". c #2C1B21",
"X c #3B282C",
"o c #4D3337",
"O c #695135",
"+ c #74623E",
"@ c #634244",
"# c #635342",
"$ c #6A5C48",
"% c #705F49",
"& c #625A53",
"* c #635D5A",
"= c #7D6A43",
"- c #71624A",
"; c #786749",
": c #6B6051",
"> c #66615D",
", c #6B655C",
"< c #756A55",
"1 c #6E6965",
"2 c #706760",
"3 c #726A66",
"4 c #796E6B",
"5 c #7C716F",
"6 c #7A6E70",
"7 c #7B7171",
"8 c #845D58",
"9 c #826E46",
"0 c #847147",
"q c #8D7147",
"w c #867349",
"e c #8B754B",
"r c #8F7A4F",
"t c #957646",
"y c #997744",
"u c #967847",
"i c #997845",
"p c #937749",
"a c #91794C",
"s c #987A48",
"d c #837353",
"f c #8E7A50",
"g c #907B50",
"h c #8D7961",
"j c #8E7E6E",
"k c #937F64",
"l c #867970",
"z c #84797B",
"x c #A3776B",
"c c #94816D",
"v c #8E807E",
"b c #948273",
"n c #97857C",
"m c #9A877A",
"M c #C6967D",
"N c #8F8083",
"B c #938384",
"V c #95888C",
"C c #9B8B8D",
"Z c #9C8D91",
/* pixels */
"rrrr0ucuecc0urrcc0urrrrrrrrrrrrrrru0u0uecurrrrrrrrrrrrrrrrrrrrrr",
"rrrr0ucuecc0urrcc0urrrrrrrrrrrrrrru0u0uecurrrrrrrrrrrrrrrrrrrrrr",
"rgreca0u0uuuuuuuueurrrrrrrrrrrrrruq+uc0crrrrrrrrrrrrrrrrrrwuusrr",
"rr0wuerruuuuuuyyuuuarurrrrrrrrrrr00ccwuarrrrrrrrrurrrrrrrcuuuuuu",
"re9ecrrruueuuuu0uuuic0rr......rrrccCmcaarrrrrrrrrrrrrrrrrruuuuuu",
"rrr0errruuuyuuuu0iuurr..888888..dvZVmncerrrrrrrrrrrrrrrrrrruruur",
"rfcbncfuuuwywuwuuuuu..88xxxxx888.vCZCnwcrrrrrrrrrrrrrrrrrrruuuue",
"wlZZZZcpc0c0wuuuuuu.@88xxMMMxx888.zvjleurrrrrrrrrrrrgrr0rrgueuur",
";1NCCBhpuyuuuuuuuu.@88xxMMMMxxx88@.>><rrrrrrrrrrrrrr000rrwrwwurr",
"+:145<wuwuuuuyyuu.@@8xxMMMMMMxx888.$+c0rrrrrrrrrrrcw0rrrr00rueuc",
"e$***+ceuueuc0uw.o@88xxMMMMMxxx888@.u00urrrrrrrrruw0rrrrrrwuru0u",
"c0++0caacuuuuuu.o@@88xMMxMMxxx88x8@@.cwurrrrrrrrrrwrrrrrrr0rueuu",
"rrrau0aa0uwuwu.o@8@x8xMMxxxxx888x8@@.sw0gr......rrrrrrrrrrwrrrur",
"rrrrraaaeaeuuu.@88@x88xMxxxx888xx88@@.y+r.@88888..rrrrrrru0crruc",
"rrraraaauauau.o@88@xx88xMx888xxx888@@.yc.88xxxxx8@.rrrrrrwwrruu0",
"rrrrerucurua.oo@88@@xx88xMxxxxx8888@@.y.88xxMMMxx8@.rrrrguerrrue",
"rrrrau0ueuaa.@o@888@xMx88xxxx88888@@oX.@8xxMMMxMxx8@.rrrrrerrrur",
"rrrrruc0urr.o@oo@88@@xxx888888x888@@XXo@8xxxMxxxxx8@@.rrrrffffrr",
"rrrrrruurrr.o@@o@@88@@@xxx88xx8@8@@oXo@@@8xxxxx88xx8@.rrrrdfffrr",
"rrrrrrrrrr.Xo@8@o@@888@@88888@@8@@oXXo@8@88xxx88xx88@o.ug0vvjfrr",
"rrrrrrrrrr.Xo@88@@@@888@@@@@@888oooXo@@8@@88888Mxx8@@o@.r<vVZmcr",
"rrrrrrrrrr.Xoo@88@@o@@@@@@@888oo88@oXo@88@@xxxMxx88@o@@.<1vVVCCk",
"rrrrrrrrrr.Xoo@@88@@oo@@88888o8xxx8@oX@@888@@xxx88@@@8@@.1vVCCZc",
"r0=0ucrrrr.XXoo@@888@ooo@@@oo8xxMxx8@Xo@oooooo888@@@88@@.>lvCVCk",
"reuw0wwerr.XXooo@@@@@@@@@ooo8xxMMxx8@oXo@88888o@@@@88@@o@.1zvVvf",
"rrrrr0wuwr.XoXoooooooooooXo@8xxxxx888@o@8xxxxx8o@888@@o@@.$,,><c",
"rrrrrrcurr.XXooo@88888@oXo@888xx88888o@8xxxMMxx8o@@@@oo@o.++-=ue",
"rrrrrrcurr.XXoo@88xxx88@oX@8x88xxx88o@8xxMMMMMxx8o@ooo@oo.uucac0",
"rrrrau0urrr.X.o88xxMxx88@o@8xx88888o@8xxMMMMMxMx88o@@@ooX.c0urwu",
"rrrrrr00wrr..o@88xMMMx888o@88xxx8@oo@8xxMMMMxxMxx8o@oooXX.rrwrrr",
"crrrrr000r.Xo@8x8xxMxx8x8@o@88@@@@o@@8xxxMMxxMMxx8oooX@88.rrurrr",
"urrrrru0uw.Xo@8x88xxx8xx8@o@@@88@oo@@@8xxxxxMMx8x8@oX@8x8@.rrrrr",
"errrrrrrc.X@o@8xx88xxxx88@oX@@ooooo@x@88xxxxxx88x8@oX8xMx8@.rrrr",
"rgrrrrrrr.o@Xo88xx8888888@oX@o8xxx8oxx@88xxxx88xx8@o@8xMxx8.rrrr",
"rrrrrrrr.Xo@8o@88xxx88xx8@oXo8xxMxx8oxx@@88888xx8@ooo@8x8x8.rgrr",
"rrrrrrrr.Xo@8@o@88888xx8@@Xo@8xMMMx8@oxx8@@88xMx8@o@Xo@@8@o.rrrr",
"rrrrrrrr.Xoo@8@@@@88888@@oX@@8xxMxx8@o8xxxMMxxx8@o@oXX@8@oX.rgrr",
"rrrrrrrr.XXo@8@@88888@@@@Xoo@@8xxx8@@o@88xxxxx8@@@@Xo.o@oX.rrrrg",
"rgrrrrrr.XXoo@8@@@@@@@@@XXXoooxx88@@oXo@@8888@@@8@o@o.....rrrrrr",
"rrrrrrrr.XoXoo@888@@oooXo@888@o88@@o@oX88@@@@xx8@o8@o.rrrrrrrrrr",
"rrgrrrrrr.Xoooo@@@@ooXXo@8xxx8@o@88@@oX@8xxxxx8@@88@o.rrrrrrrrrr",
"rrrrgrrrr.XXoo@oooooo@o@8xMMxx8@o@@@oooo@88xx@@@88@oX.rwe0e0rr0r",
"grrrrrrrrr.XXoo@@@@@@o@8xMMMMxx8@XooX@8@o@@@@@888@ooX.rrrrgrr=0r",
"rrrrrrrgrrw.XXooooooo@@8xxMxxMx8@oXXoo@888@@@@@@@oooX.rrrrrrrrrr",
"rrrrerrrrrrr.XXXXXX.@8@@8xxx8xx8@@.XXo@@888@@@ooo@oX.rucrrrrrrrr",
"rrrrrre=0re0r..XXX.@@x@@@8888xx8@@o.Xoo@@@@@oooo@oX.rrrrrrrrrrrr",
"rrrrrrrrrr+0wer....o8x@8x88xxx88@8@.XXooooo@@@@@ooX.rrrrrrrrrrrr",
"rrrrrrrrrr0rurrrer.o8xx@8xxxx88o@8@..XXXoo@@@@ooo..rrrrrrrrrrrrr",
"rrrrrrrrrrr0rrrrrr.o@8x@@88888o@88@.r..XXoooooo..rrrrrrrrrrrrrrr",
"rrrrrrrrrrrrrrrrrr.Xo@88@@@@oo@88@@.rrr........0errrrrrrrrrrrrrr",
"rrrrrrurrrrrrrrrue.Xoo@8888@@@88@@o.rrrrrrr0rerr0rrrrrrrrrrrrrrr",
"rrrrcrccuurrwcrrcwr.Xooo@@@@888@@o.rrrwrrrrrwwgrurrwrrgrrrrrrrrr",
"rrrgwbmVcruuususuur.XXo@@@88@@@@oo.rr0rrrrrrrwgrcu00rrrrrrrrrrrr",
"rgru+3nZZmruueruyyiu.XXoo@@@@@ooo.rrwrrrrrrr0err0urrrrrrrrgrrrrr",
"rrre$17VCmcwuuru0cuiu..Xoooooooo.rrrwrrrrrrrerrrrrrrrrrrrrrrrrrr",
"rrrrO&,3nVcururuuuuuuuy.........rrrwrrrrrrr0grrrrrrrrrrwrrrrrrrr",
"rrgg0O#&*,euruwreueueuy0uuuuuuyurr0wrrrrrrrwrrrrrrrrrrcurrrrrwar",
"rrrrcr+++waaeueuuuuuuuucuuuuuuurr0wgrrrrrrerrrrrreffcCCVcurrr00u",
"rrrruaruucaaur0c0yueueuuuuuwuurgwwrrrgrrrrrerrrrrwc0vZZVcwrr0w+u",
"rrrruwrrwuraruuuucuuuuueu0uuurrewcurrrrrrrrrrrrrrre+1vvl0rrw=ucu",
"rrrrrrruaraaueuueueuueuuuuuurrwwrrerrgrrrrrrrrrrrrc+>1,-uurr0cuw",
"raerrrrrrurue0uuaureuuuuuuuarerrrgrrrrrgrrrrrrrrrrc0+&:0rrca00ur",
"r0+arrrrrrreuceuuraureeuearerrrrrrrrrrrrrrrrrrrrrruue0wcruwgw0re",
"y9uurrrwrruruuurrrrrrrrrrrrrrrrrrrrrrrrrerrrrrrrrrerrsrrrrrrwrrr"
};
