/* XPM */
static char *_9535aaca5c54671c19cfd27885d02f0QCVwNOyzpTxeDYbt[] = {
/* columns rows colors chars-per-pixel */
"64 64 69 1 ",
"  c black",
". c #2D2526",
"X c #332A2A",
"o c #5D3129",
"O c #403231",
"+ c #453635",
"@ c #4F3D39",
"# c #6F4134",
"$ c #695135",
"% c #74623E",
"& c #574541",
"* c #635342",
"= c #63504A",
"- c #6A5C48",
"; c #705F49",
": c #625A53",
"> c #635D5A",
", c #7D6A43",
"< c #71624A",
"1 c #786749",
"2 c #6B6051",
"3 c #66615D",
"4 c #6B655C",
"5 c #756A55",
"6 c #6E6965",
"7 c #706760",
"8 c #726A66",
"9 c #796E6B",
"0 c #7C716F",
"q c #7A6E70",
"w c #7B7171",
"e c #8B573E",
"r c #826E46",
"t c #847147",
"y c #8D7147",
"u c #867349",
"i c #8B754B",
"p c #8F7A4F",
"a c #957646",
"s c #997744",
"d c #967847",
"f c #997845",
"g c #937749",
"h c #91794C",
"j c #987A48",
"k c #837353",
"l c #8E7A50",
"z c #907B50",
"x c #A47347",
"c c #8D7961",
"v c #8E7E6E",
"b c #937F64",
"n c #867970",
"m c #84797B",
"M c #BB8C4E",
"N c #94816D",
"B c #8E807E",
"V c #948273",
"C c #97857C",
"Z c #9A877A",
"A c #D3A651",
"S c #E0C355",
"D c #ECDB52",
"F c #8F8083",
"G c #938384",
"H c #95888C",
"J c #9B8B8D",
"K c #9C8D91",
"L c #F8F49A",
/* pixels */
"pppptdNdiNNtdppNNtdpppppppppppppppdtdtdiNdpppppppppppppppppppppp",
"pppptdNdiNNtdppNNtdpppppppppppppppdtdtdiNdpppppppppppppppppppppp",
"pzpiNhtdtddddddddidppppppppppppppdy%dNtNppppppppppppppppppuddjpp",
"pptudippddddddssdddhpdpppppppppppttNNudhpppppppppdpppppppNdddddd",
"piriNpppddiddddtdddfNtpppppppppppNNJZNhhppppppppppppppppppdddddd",
"ppptipppdddsddddtfddppudppppppppkBKHZCNipppppppppppppppppppdpddp",
"plNVCNldddusududddddpidNpppppppt6BJKJCuNpppppppppppppppppppddddi",
"unKKKKNgNtNtuddddddppipupppppdt%4nmBvnidppppppppppppzpptppzdiddp",
"16FJJGcgdsdddddddddpppdttdppNttt:33335pppppppppppppptttppupuudpp",
"%26905ududdddssdddpptpppdpupN%dt%%--%NtpppppppppppNutppppttpdidN",
"i->>>%NiddidNtduNppptppppppd,udNNiNudttdpppppppppdutppppppudpdtd",
"Nt%%tNhhNddddddNppputpppppNtdhidssssjNudppppppppppuppppppptpdidd",
"ppphdthhtdududdtppptoopppputdhsssstsfjutzpppppppppppppppppupppdp",
"ppppphhhihidddNtpptuoLoppptpussdsssaass%pppppppppppppppppdtNppdN",
"ppphphhhdhdhdiidppttoDLopippsdsdddsyassNudpppppppppppppppuuppddt",
"ppppipdNdpdhudptpptpoMLLoppdsddddssdaasuitdpppppppppppppzdipppdi",
"pppphdtdidhhdNduipupoMDLLopdstdsdtsaaassNtppppppppppppppppipppdp",
"pppppdNtdppppppiuNuioMSDLLodddddaaaasfdspppppppoppppppppppllllpp",
"ppppppddpppppppdtdptoMASDDLoddsdaaaastddjupppuooppppzpppppklllpp",
"ppppppppppppppptippioMASSDDDostdaadadddddiujooDoppppppzdztBBvlpp",
"ppppppppppppppptpppoMMAASSDDDodddiddyddudptoMMDLoppppppzp5BHKZNp",
"pppppppppppppzutpttoMMAAASSDDoddaaagdddddpoMMADLoppppzpz56BHHJJb",
"pppppppppppzppztutpoMMASASSMAodfaagaidddooMMAADDoppppppz16BHJJKN",
"pt,tdNppppppppz,%ppoMMAAASxxAoudfogaidhoMMMAASDDoppppppz%3nBJHJb",
"pidutuuippppppztpzpoMMAASxxxAAodoLogddoMMMAAAASDoppppppp%:6mBHBl",
"ppppptuduppppppupppoMAAxxxMxMAosoDLoggoMAASAAASDoppppppd,%-4435N",
"ppppppNdppppppptpppoeeMxxxxxMAAoMMDLogoeAAAAASSDDoppppppNu%%<,di",
"ppppppNdppppdpuupppoxeeMMxxMAMexMMDDDooexxASSSADeoppppppNdddNhNt",
"pppphdtdppppuNpuppppoeeexMMAMMeMMMSDDDeexxxxxxMeeopppppptuNtdpud",
"ppppppttuppppppipppzdoeexxMMMexMMAASDDeeMxxxxMeeoidpdpppppppuppp",
"NppppptttppppppppppppoeeexxxxeMMAAASDDexxMMMMMeoNdppuNppppppdppp",
"dpppppdtdudpppppppp&&&oeexxxexMAAAASSDDxxMAAMeeopppppppppppppppp",
"ipppppppNdppppppp&=&&+o#eexxxeeAAASSSSDxxxMMxeouuppppppppppppppp",
"pzpppppppppppppp&===+.X##eeMxeexxSSDxxAxxxxxe#oNttdppppppppppppp",
"ppppppppppppppp&&&=+.XXX##exxxeexxxxxxAxMMMe#XX.dupppppppppppzpp",
"ppppppppppppppp&&&++.OOOX##exxeeMxMxxMAxxMeXXXOO.dppppppppzppppp",
"ppppppppppppppp&&++.O@@OOX#eexeeMxxxMAAxxeXDAAAxO.dNpppppppppzpp",
"pppppppppppppp&&&+.O@@@@OOX#eexexMxMAAAxeeAAAAxO@.Nudppppppppppz",
"pzppppppppppp&&&+.XO@@AADOOO#exeexMMMAXeeAxxAxO@@.pppppppppppppp",
"pppppppppppp&&&&+.XO@@MMAAADO#e#exxMxAXXOxxeeO@@@@.ppppppppppppp",
"ppzpppppppp&&==&++.XO@@MAAAAAO##exxxxAXOxxee@@@@@@.+pppppppppppp",
"ppppzpppppp&====&++.OOOMMAAAxAO##eMxMAOxMee@@@@@@O.&pppuititpptp",
"zpppppppppt&====&&++.OOMMMAxxxAO#exMAAxxeeO@@@@@O.&&ppppppzpp,tp",
"pppppppzpput&==&&&&+.XOO##eeMxxxO#xxAxxe#OOO@@@O.+&&pppppppppppp",
"ppppippppppp&&&&&&&+.XO@@@##eexxxOexAxe#@@OOOOO.+&&pppdNpppppppp",
"ppppppi,tpitp&&&&&&&+.XO@@@@##eeeOOe@@@@@OOO...+&&pzpppppppppppp",
"pppppppppp%tui&&&&&=&+.XO@@@@@@eOO@@@@@@OOX.+++&&ppppppppppppppp",
"pppppppppptpdppp&&===&+..OO@@@OOOOO@@@@OOX.++&&&ippppppppppppppp",
"ppppppppppptppppp&&=&&&++...OOO...OOOOOXX.++&&d%pppppppppppppppp",
"pppppppppppppppppp&&&&&&&+++...+++..XXX..++&&uztippppppppppppppp",
"ppppppdpppppppppdipN&&&&&&&+++++++++...++&&tpipptppppppppppppppp",
"ppppNpNNddppuNppNupuup&&&&&&&&&=&&&+++++&&ppuuzpdppuppzppppppppp",
"pppzuVZHNpdddjdjddptpjpuutpp&&===&&&&&&&pppppuzpNdttpppppppppppp",
"pzpd%8CKKZpddipdssfdhtdtupjdddssjpppuppppppptipptdppppppppzppppp",
"pppi-6wHJZNuddpdtNdfdsNddjdudddtjpppupppppppippppppppppppppppppp",
"pppp$:48CHNdpdpdddddddssjddddddspppuppppppptzppppppppppupppppppp",
"ppzzt$*:>4idpdupidididstddddddsdpptupppppppuppppppppppNdpppppuhp",
"ppppNp%%%uhhididdddddddNdddddddpptuzppppppippppppillNJJHNdpppttd",
"ppppdhpddNhhdptNtsdididdddduddpzuupppzpppppipppppuNtBKKHNupptu%d",
"ppppduppudphpddddNdddddidtdddppiuNdpppppppppppppppi%6BBntppu,dNd",
"pppppppdhphhdiddididdiddddddppuuppippzppppppppppppN%364<ddpptNdu",
"phippppppdpditddhdpidddddddhpipppzpppppzppppppppppNt%:2tppNhttdp",
"pt%hpppppppidNiddphdpiidihpippppppppppppppppppppppddituNpduzutpi",
"srddpppuppdpdddpppppppppppppppppppppppppipppppppppippjppppppuppp"
};
