/* XPM */
static char *e887b09ee0c542a2a6d2a0190fb22654FHRS97MkDNoLhDPG[] = {
/* columns rows colors chars-per-pixel */
"64 64 111 2 ",
"   c black",
".  c #0B0102",
"X  c #0D0E0E",
"o  c #120305",
"O  c #1A0407",
"+  c #1B0408",
"@  c #0F1010",
"#  c #101010",
"$  c #1E1113",
"%  c #1A1B1B",
"&  c #25060B",
"*  c #2C070D",
"=  c #31070D",
"-  c #33080F",
";  c #360810",
":  c #3C0911",
">  c #262727",
",  c #2B2C2C",
"<  c #430A14",
"1  c #4C0C16",
"2  c #500C17",
"3  c #590815",
"4  c #530D18",
"5  c #5C0E1B",
"6  c #40181F",
"7  c #5F101D",
"8  c #620F1D",
"9  c #63101E",
"0  c #69101F",
"q  c #6D1120",
"w  c #731222",
"e  c #7C1425",
"r  c #482027",
"t  c #572E35",
"y  c #5D343B",
"u  c #695135",
"i  c #74623E",
"p  c #434443",
"a  c #4C4C4C",
"s  c #515151",
"d  c #635342",
"f  c #6A5C48",
"g  c #705F49",
"h  c #625A53",
"j  c #635D5A",
"k  c #7D6A43",
"l  c #71624A",
"z  c #786749",
"x  c #6B6051",
"c  c #66615D",
"v  c #6B655C",
"b  c #756A55",
"n  c #666767",
"m  c #6E6965",
"M  c #706760",
"N  c #726A66",
"B  c #77696C",
"V  c #796E6B",
"C  c #7C716F",
"Z  c #7A6E70",
"A  c gray46",
"S  c #7B7171",
"D  c #821426",
"F  c #861528",
"G  c #8B162A",
"H  c #8F182B",
"J  c #91172B",
"K  c #95182D",
"L  c #9A1A2F",
"P  c #9E1A30",
"I  c #A11B31",
"U  c #A91C33",
"Y  c #826E46",
"T  c #847147",
"R  c #8D7147",
"E  c #867349",
"W  c #8B754B",
"Q  c #8F7A4F",
"!  c #957646",
"~  c #997744",
"^  c #967847",
"/  c #997845",
"(  c #937749",
")  c #91794C",
"_  c #987A48",
"`  c #837353",
"'  c #8E7A50",
"]  c #907B50",
"[  c #8D7961",
"{  c #8E7E6E",
"}  c #937F64",
"|  c #867970",
" . c #84797B",
".. c #94816D",
"X. c #8E807E",
"o. c #948273",
"O. c #97857C",
"+. c #9A877A",
"@. c #8F8083",
"#. c #938384",
"$. c #95888C",
"%. c #9B8B8D",
"&. c #9C8D91",
"*. c #A1A2A2",
"=. c #B2A5A7",
"-. c #B9B9B9",
";. c #C4B6B8",
":. c #C3C4C4",
">. c #CDCDCD",
",. c #D4C7C9",
"<. c #DFDFDF",
/* pixels */
"Q Q Q Q T ^ ..^ W ....T ^ Q Q ....T ^ Q Q Q Q Q Q Q Q Q Q Q Q Q Q Q ^ T ^ T ^ W ..^ Q Q Q Q Q Q Q Q Q Q Q Q Q Q Q Q Q Q Q Q Q Q ",
"Q Q Q Q T ^ ..^ W ....T ^ Q Q ....T ^ Q Q Q Q Q Q Q Q Q Q Q Q Q Q Q ^ T ^ T ^ W ..^ Q Q Q Q Q Q Q Q Q Q Q Q Q Q Q Q Q Q Q Q Q Q ",
"Q ] Q W ..) T ^ T ^ ^ ^ ^ ^ ^ ^ ^ W ^ Q Q Q Q Q Q Q Q Q Q Q Q Q Q ^ R i ^ ..T ..Q Q Q Q Q Q Q Q Q Q Q Q Q Q Q Q Q Q E ^ ^ _ Q Q ",
"Q Q T E ^ W Q Q ^ ^ ^ ^ ^ ^ ~ ~ ^ ^ ^ ) Q ^ Q Q Q Q Q Q Q Q Q Q Q T T ....E ^ ) Q Q Q Q Q Q Q Q Q ^ Q Q Q Q Q Q Q ..^ ^ ^ ^ ^ ^ ",
"Q W Y W ..Q Q Q ^ ^ W ^ ^ ^ ^ T ^ ^ ^ / ..T Q Q Q Q Q Q Q Q Q Q Q ....%.+...) ) Q Q Q Q Q Q Q Q Q Q Q Q Q Q Q Q Q Q ^ ^ ^ ^ ^ ^ ",
"Q Q Q T W Q Q Q ^ ^ ^ ~ ^ ^ ^ ^ T / ^ ^ Q Q E ^ Q Q Q Q Q Q Q Q ` X.&.$.+.O...W Q Q Q Q Q Q Q Q Q Q Q Q Q Q Q Q Q Q Q ^ Q ^ ^ Q ",
"Q ' ..o.O...' ^ ^ ^ E ~ E ^ E ^ ^ ^ ^ ^ Q W ^ ..Q Q Q Q Q Q Q T m X.%.&.%.O.E ..Q Q Q Q Q Q Q Q Q Q Q Q Q Q Q Q Q Q Q ^ ^ ^ ^ W ",
"E | &.&.&.&...( ..T ..T E ^ ^ ^ ^ ^ ^ Q Q W Q E Q Q Q Q Q ^ T i v |  .X.{ | W ^ Q Q Q Q Q Q Q Q Q Q Q Q ] Q Q T Q Q ] ^ W ^ ^ Q ",
"z m @.%.%.#.[ ( ^ ~ ^ ^ ^ ^ ^ ^ ^ ^ ^ Q Q Q ^ T T ^ Q Q ..T T T h c c c c b Q Q Q Q Q Q Q Q Q Q Q Q Q Q T T T Q Q E Q E E ^ Q Q ",
"i x m V C b E ^ E ^ ^ ^ ^ ~ ~ ^ ^ ^ Q Q T ; : : ; ; ; ; ; ; ; ; : : : f i ..T Q Q Q Q Q Q Q Q Q Q Q ..E T Q Q Q Q T T Q ^ W ^ ..",
"W f j j j i ..W ^ ^ W ^ ..T ^ E ..Q Q Q T 2 4 7 9 9 7 q 9 q 9 q 0 9 7 < ^ T T ^ Q Q Q Q Q Q Q Q Q ^ E T Q Q Q Q Q Q E ^ Q ^ T ^ ",
"..T i i T ..) ) ..^ ^ ^ ^ ^ ^ ..Q Q Q - < 7 e H L K K K K K K K K K e 1 ; ..E ^ Q Q Q Q Q Q Q Q Q Q E Q Q Q Q Q Q Q T Q ^ W ^ ^ ",
"Q Q Q ) ^ T ) ) T ^ E ^ E ^ ^ T Q Q Q 1 7 e J L U U I G e e e e e w e q 9 < E T ] Q Q Q Q Q Q Q Q Q Q Q Q Q Q Q Q Q E Q Q Q ^ Q ",
"Q Q Q Q Q ) ) ) W ) W ^ ^ ^ ..T Q Q < 7 e H L I I I H 7 < : < < : < 4 F e 2 ; i Q Q Q Q Q Q Q Q Q Q Q Q Q Q Q Q Q ^ T ..Q Q ^ ..",
"Q Q Q ) Q ) ) ) ^ ) ^ ) ^ W W ^ Q 1 7 e K I I U I F 9 ; + + + + + + = q e q 9 < E ^ Q Q Q Q Q Q Q Q Q Q Q Q Q Q Q E E Q Q ^ ^ T ",
"Q Q Q Q W Q ^ ..^ Q ^ ) E ^ Q T : 7 e K I I I I H 7 - o     .       o ; 7 e e 6 ; T ^ Q Q Q Q Q Q Q Q Q Q Q Q Q ] ^ W Q Q Q ^ W ",
"Q Q Q Q ) ^ T ^ W ^ ) ) ^ ..^ E ; 7 D K I I L F 9 ; o .             . o - q w q 9 < Q Q Q Q Q Q Q Q Q Q Q Q Q Q Q Q W Q Q Q ^ Q ",
"Q Q Q Q Q ^ ..T ^ Q Q Q Q Q Q : < 5 D K I I K 0 - o                     o - 9 H e < - Q Q Q Q Q Q Q Q Q Q Q Q Q Q Q ' ' ' ' Q Q ",
"Q Q Q Q Q Q ^ ^ Q Q Q Q Q Q : 2 5 w D K I U K 7 = o                     . & 9 K e 1 - Q Q E W Q Q Q Q Q ] Q Q Q Q Q ` ' ' ' Q Q ",
"Q Q Q Q Q Q Q Q Q Q Q Q Q Q : 5 e D F J P U K 9 = o   X # .         . @ $ - 9 H e 1 - _ ^ T E Q Q Q Q Q Q Q ] ^ ] T X.X.{ ' Q Q ",
"Q Q Q Q Q Q Q Q Q Q Q Q Q Q : 7 e F F F H P K 9 = . % n A >         > A B r 5 K e < - ^ ..E Q Q Q Q Q Q Q Q Q ] Q b X.$.&.+...Q ",
"Q Q Q Q Q Q Q Q Q Q Q Q Q ] : 5 e e e e F K K 9 = . > -.>.a         a >.;.y 3 J e 1 ; Q Q Q Q Q Q Q Q Q Q ] Q ] b m X.$.$.%.%.} ",
"Q Q Q Q Q Q Q Q Q Q Q ] Q Q : 5 e q 5 q D L K 0 * . , :.<.s         s <.,.y 3 K e 1 ; Q Q Q Q Q Q Q Q Q Q Q Q ] z m X.$.%.%.&...",
"Q T k T ^ ..Q Q Q Q Q Q Q Q : 9 e 5 < 8 D L K 9 = . > *.-.p         p -.=.t 3 H e < ; E Q Q ..Q Q Q Q Q Q Q Q ] i c | X.%.$.%.} ",
"Q W ^ E T E E W Q Q Q Q Q Q : 5 e 5 : 5 D L K 9 = . # p a %         % a s : 7 D q < ; W ^ ^ E Q Q Q Q Q Q Q Q Q i h m  .X.$.X.' ",
"Q Q Q Q Q T E ^ E Q Q Q Q Q : 5 q 4 < 8 D K J q < + .                   o = 4 e 0 < ; Q E ..Q Q Q Q Q Q Q Q Q ^ k i f v v c b ..",
"Q Q Q Q Q Q ..^ Q Q Q Q Q Q Q 1 2 < : 8 D G G F w < O                   . * 4 e 0 < ; Q ^ T Q Q Q Q Q Q Q Q Q Q ..E i i l k ^ W ",
"Q Q Q Q Q Q ..^ Q Q Q Q ^ Q E E : ; < 5 w D F L H 0 : O               . + : 4 0 9 < ^ W T Q ^ Q Q Q Q Q Q Q Q Q ..^ ^ ^ ..) ..T ",
"Q Q Q Q ) ^ T ^ Q Q Q Q E ..Q E Q Q Q 1 4 0 D F F e 8 : O .         . O : 9 0 4 1 Q ^ ^ E E Q Q Q Q Q Q Q Q Q Q T E ..T ^ Q E ^ ",
"Q Q Q Q Q Q T T E Q Q Q Q Q Q W Q Q Q ] < 5 w w w D e 5 : O . . . . O : 7 0 9 < Q ^ ^ ) ] E T Q Q W ^ Q ^ Q Q Q Q Q Q Q E Q Q Q ",
"..Q Q Q Q Q T T T Q Q Q Q Q Q Q Q Q Q Q Q < 1 1 4 w e e 5 : & & & & : 8 9 4 1 ( E ^ ^ Q ] Q E Q ..^ Q Q E ..Q Q Q Q Q Q ^ Q Q Q ",
"^ Q Q Q Q Q ^ T ^ E ^ Q Q Q Q Q Q Q Q ^ ^ < < < 1 0 D G e 8 2 2 1 2 9 e w 4 < ( ^ Q Q ^ ^ Q Q E Q Q Q Q Q Q Q Q Q Q Q Q Q Q Q Q ",
"W Q Q Q Q Q Q Q ..^ Q Q Q Q Q Q Q Q Q ^ < 5 q w w e F J L G F G F G H L H w 5 < Q ^ ^ ^ ] Q Q E E Q Q Q Q Q Q Q Q Q Q Q Q Q Q Q ",
"Q ] Q Q Q Q Q Q Q Q Q Q Q Q Q Q Q Q ..< 2 q F H H F H P I I I I U I I I P H w 4 < T ^ W ^ ^ Q ..T T ^ Q Q Q Q Q Q Q Q Q Q Q Q Q ",
"Q Q Q Q Q Q Q Q Q Q Q Q Q Q Q ^ Q Q : 5 w G P P P K P I I I I I I I I I I L H w 5 < ^ ^ T ..^ Q ^ E Q Q Q Q Q Q Q Q Q Q Q ] Q Q ",
"Q Q Q Q Q Q Q Q Q Q Q Q Q Q Q ..Q ; < 9 F L I I I I I I I I I I I I I I I I L F 9 < ; W ^ W ^ Q Q ^ Q Q Q Q Q Q Q Q ] Q Q Q Q Q ",
"Q Q Q Q Q Q Q Q Q Q Q Q Q Q Q Q Q ; : 7 D K I I I P I I I I I I I I P I I I L F 0 < ; ) ^ ^ W Q W E ^ ..Q Q Q Q Q Q Q Q Q ] Q Q ",
"Q Q Q Q Q Q Q Q Q Q Q Q Q Q Q Q Q ; : 0 G L P I I I I I I I P I P I I I I I L G q < : ) Q ^ ^ Q E W ..E ^ Q Q Q Q Q Q Q Q Q Q ] ",
"Q ] Q Q Q Q Q Q Q Q Q Q Q Q Q Q Q ; : q P P P I I I I P I I I I I I I I I I U L w < ; ) W Q Q Q E E Q Q Q Q Q Q Q Q Q Q Q Q Q Q ",
"Q Q Q Q Q Q Q Q Q Q Q Q Q Q Q Q ^ < 5 e I U I I P I I I I I I I I I I I I I I I e < = Q ^ Q Q Q E Q Q Q Q Q Q Q Q Q Q Q Q Q Q Q ",
"Q Q ] Q Q Q Q Q Q Q Q Q Q Q Q Q : 5 w K P I I I I I I I I I P I I I P I I P U I e < - ^ Q Q Q Q W Q Q Q Q Q Q Q Q Q Q Q Q Q Q Q ",
"Q Q Q Q ] Q Q Q Q Q Q Q Q Q Q ; < 7 D K I I I I I I I I I I P K K L I I I I I I F 7 1 ) ) ..^ E E ] Q Q Q Q Q E W T W T Q Q T Q ",
"] Q Q Q Q Q Q Q Q Q T Q Q Q Q Q : 5 D K I I I I I I I P I I P G H L I I I I I I J e 7 < Q Q ^ i T Q Q Q Q Q Q Q Q Q ] Q Q k T Q ",
"Q Q Q Q Q Q Q ] Q Q E T Q Q Q Q : 5 D K I I I I I I I I I I P F F L U P I I I I L F 8 < ; Q T k k Q Q Q Q Q Q Q Q Q Q Q Q Q Q Q ",
"Q Q Q Q W Q Q Q Q Q Q Q E Q Q Q < 5 D K I I I P P I I I I I L F F L I I I I I I K F 8 : ; k T ^ T E Q Q Q Q ^ ..Q Q Q Q Q Q Q Q ",
"Q Q Q Q Q Q W k T Q W T Q Q Q Q : 5 D K I I I I I P I I P P F q q F L I I I L K G D 8 < - W W ..T Q Q ] Q Q Q Q Q Q Q Q Q Q Q Q ",
"Q Q Q Q Q Q Q Q Q Q i T E W Q : < 5 D K P I I P P P I I P G w 1 1 w G L I I L F D D 8 < ; ..^ ^ T Q Q Q Q Q Q Q Q Q Q Q Q Q Q Q ",
"Q Q Q Q Q Q Q Q Q Q T Q ^ Q Q 1 5 q D F K L I K K P P L G F w 1 1 w F J L I K F D e 8 < ; ..^ ..W Q Q Q Q Q Q Q Q Q Q Q Q Q Q Q ",
"Q Q Q Q Q Q Q Q Q Q Q T Q Q : 5 e D D D F K P H G K P H D e q < < w e D G L K F D D 8 < - E ^ i Q Q Q Q Q Q Q Q Q Q Q Q Q Q Q Q ",
"Q Q Q Q Q Q Q Q Q Q Q Q Q Q : 5 D F D D D F J J J J J F e q 2 * * 2 0 e F G G F F D 8 < ; E ] T W Q Q Q Q Q Q Q Q Q Q Q Q Q Q Q ",
"Q Q Q Q Q Q ^ Q Q Q Q Q Q Q : 5 e D e e D D G J L G D D q 1 * . . = 2 w F D D e e e 8 < ; W Q Q T Q Q Q Q Q Q Q Q Q Q Q Q Q Q Q ",
"Q Q Q Q ..Q ....^ ^ Q Q E ..: 7 e w 5 q D D F G G G e 0 2 * o   . * 2 w D D w 5 0 e 8 < ; E ] Q ^ Q Q E Q Q ] Q Q Q Q Q Q Q Q Q ",
"Q Q Q ] E o.+.$...Q ^ ^ ^ _ : 5 w 5 < 8 D e e e D D w 4 = o     . * 1 q D D q 1 5 w 8 < ; E ] Q ..^ T T Q Q Q Q Q Q Q Q Q Q Q Q ",
"Q ] Q ^ i N O.&.&.+.Q ^ ^ W Q 4 4 < < 8 e q 5 w D G w 2 = .       o * 1 q e w 8 5 5 1 Q T W Q Q T ^ Q Q Q Q Q Q Q Q ] Q Q Q Q Q ",
"Q Q Q W f m S $.%.+...E ^ ^ Q ^ : ; : 8 w 4 < 9 e e q 2 = o         o * 2 w e e 8 < ; Q W Q Q Q Q Q Q Q Q Q Q Q Q Q Q Q Q Q Q Q ",
"Q Q Q Q u h v N O.$...^ Q ^ Q ^ ^ : : < 2 1 ~ 2 3 5 2 < ; O ^ ~     . = < 2 5 4 2 Q Q T ] Q Q Q Q Q Q Q Q Q Q E Q Q Q Q Q Q Q Q ",
"Q Q ] ] T u d h j v W ^ Q ^ E Q W ^ : : : ^ ~ = ; = ; ; : ^ ~ ^ Q   . * = : : : : Q Q E Q Q Q Q Q Q Q Q Q Q ..^ Q Q Q Q Q E ) Q ",
"Q Q Q Q ..Q i i i E ) ) W ^ W ^ ^ ^ ^ ^ ^ ^ ^ o o o o & ^ ^ ^ Q Q T . o O Q Q Q Q Q W Q Q Q Q Q Q W ' ' ..%.%.$...^ Q Q Q T T ^ ",
"Q Q Q Q ^ ) Q ^ ^ ..) ) ^ Q T ..T ~ ^ W ^ W ^         E ^ ^ Q ] E E Q     ] Q Q Q Q Q W Q Q Q Q Q E ..T X.&.&.$...E Q Q T E i ^ ",
"Q Q Q Q ^ E Q Q E ^ Q ) Q ^ ^ ^ ^ ..^ ^ ^ ^ ^ W ^     ^ ^ Q Q W E ..^     Q Q Q Q Q Q Q Q Q Q Q Q Q W i m X.X.| T Q Q E k ^ ..^ ",
"Q Q Q Q Q Q Q ^ ) Q ) ) ^ W ^ ^ W ^ W ^ ^ W ^ ^ ^     ^ Q Q E E Q Q W     ] Q Q Q Q Q Q Q Q Q Q Q Q ..i c m v l ^ ^ Q Q T ..^ E ",
"Q ) W Q Q Q Q Q Q ^ Q ^ W T ^ ^ ) ^ Q W ^ ^ ^ ^ ^     ) Q W Q Q Q ] Q     Q Q ] Q Q Q Q Q Q Q Q Q Q ..T i h x T Q Q ..) T T ^ Q ",
"Q T i ) Q Q Q Q Q Q Q W ^ ..W ^ ^ Q ) ^ Q W W ^ W     W Q Q Q Q Q Q Q     Q Q Q Q Q Q Q Q Q Q Q Q Q ^ ^ W T E ..Q ^ E ] E T Q W ",
"~ Y ^ ^ Q Q Q E Q Q ^ Q ^ ^ ^ Q Q Q Q Q Q Q Q Q Q Q Q Q Q Q Q Q Q Q Q Q Q Q Q Q W Q Q Q Q Q Q Q Q Q W Q Q _ Q Q Q Q Q Q E Q Q Q "
};
